# xmcd
#
# Track frame offsets: 
#        150
#        11508
#        24180
#        36081
#        49038
#        61496
#        72971
#        85837
#        97836
#        108808
#        121106
#        134026
#        145938
#        157488
#        168820
#        180956
#        192126
#        200971
#        211107
#        224521
#        234721
#        248216
#        258534
#        269022
#        279877
#        290581
#        301196
#        312735
#        326408
#        337076
#
# Disc length: 4660 seconds
#
# Revision: 1
# Processed by: cddbd v1.5.2PL0 Copyright (c) Steve Scherf et al.
# Submitted via: ExactAudioCopyFreeDBPlugin 1.0
#
DISCID=c112321e
DTITLE=Various Artist - Wailin' Daddy: The Best Of Maxwell Davis 1945
DTITLE=1959 [CD3]
DYEAR=2011
DGENRE=R&B
TTITLE0=Calvin Boze and His All Stars - Waiting And Drinking
TTITLE1=Floyd Dixon and Mari Jones with Johnny Moore's Three Blazers - R
TTITLE1=eal Lovin' Mama
TTITLE2=Helen Humes with Marshall Royal Orchestra - He May Be Yours
TTITLE3=Joe Liggins and His Honeydrippers - Going Back To New Orleans
TTITLE4=La Melle Prince with Maxwell Davis' Band - Get High
TTITLE5=Meredith Howard with Maxwell Davis Orchestra - Goodbye
TTITLE6=Red Callendar Sextette - Chico's Boogie
TTITLE7=Peppermint Harris with Maxwell Davis All Stars - Let The Back 
TTITLE7=Door Hit You
TTITLE8=T-Bone Walker - Welcome Blues
TTITLE9=Eddie Johnson and His Orchestra - Mr. Juice Head
TTITLE10=Mabel Scott with Maxwell Davis Orchestra - Wailin' Daddy
TTITLE11=June Christy with Pete Rugolo Orchestra - Some Folks Go
TTITLE12=Ray Anthony and His  Orchestra - Blow, Man, Blow!
TTITLE13=Rock Heart Johnson - Rock Heart's Blues
TTITLE14=Bob Williams - Talk To Me
TTITLE15=Jimmy Nelson - Cry Hard Luck
TTITLE16=Percy Mayfield - Loose Lips
TTITLE17=Ike Carpenter and His Orchestra - Pachuko Hop
TTITLE18=Louis Jordan and His Tympany Five - Hog Wash
TTITLE19=Clarence Garlow and His Band - I'm Hurt
TTITLE20=Earl Curry and His Orchestra - I Want Your Loving
TTITLE21=B.B. King and The Kings Men - I'm In Love
TTITLE22=Patti Anne with Maxwell Davis Band - Shtiggy Boom
TTITLE23=Rusty McDonald with Maxwell Davis Band - Dirty Pool
TTITLE24=The Cocoas - Flip Your Daddy
TTITLE25=Oscar McLollie and His Honey Jumpers - Hot Banana
TTITLE26=Cordella De Milo with Maxwell Davis Orchestra - I Ain't Gonna
TTITLE26=Hush
TTITLE27=Young Jessie with Maxwell Davis Orchestra - Mary Lou
TTITLE28=George Smith - Cross-Eyed Suzie Lee
TTITLE29=Little Willie Littlefield - Kansas City
EXTD=
EXTT0=
EXTT1=
EXTT2=
EXTT3=
EXTT4=
EXTT5=
EXTT6=
EXTT7=
EXTT8=
EXTT9=
EXTT10=
EXTT11=
EXTT12=
EXTT13=
EXTT14=
EXTT15=
EXTT16=
EXTT17=
EXTT18=
EXTT19=
EXTT20=
EXTT21=
EXTT22=
EXTT23=
EXTT24=
EXTT25=
EXTT26=
EXTT27=
EXTT28=
EXTT29=
PLAYORDER=
